<svg width="111" height="34" viewBox="0 0 111 34" fill="none" xmlns="http://www.w3.org/2000/svg">
<path d="M33.5 18.1765V17.6765H33H17.9112H17.4112V18.1765V19.7807V20.2807H17.9112H30.0797V28.2111C29.6796 28.5222 29.0258 28.8837 28.0828 29.2888C27.0523 29.7258 25.6863 30.1096 23.9733 30.4339L23.9722 30.4341C22.2982 30.7546 20.3194 30.917 18.0308 30.917C15.8851 30.917 13.9367 30.631 12.1811 30.065C10.4437 29.4843 8.95895 28.6659 7.71888 27.6145C6.49844 26.5631 5.55715 25.3237 4.89085 23.8939C4.24621 22.4537 3.92016 20.857 3.92016 19.0962V14.4759C3.92016 12.7848 4.22694 11.2507 4.83308 9.86641C5.4601 8.47989 6.35158 7.28469 7.51116 6.27724C8.69065 5.26976 10.115 4.48716 11.7931 3.93483L11.7966 3.93366C13.4694 3.36926 15.3662 3.08289 17.493 3.08289C20.3264 3.08289 22.5997 3.42881 24.3345 4.09757L24.3377 4.09879C26.0948 4.76226 27.3872 5.62525 28.2531 6.66717L28.2585 6.67352C29.1664 7.72975 29.7533 8.86943 30.0325 10.095L30.1211 10.484H30.52H32.9401H33.529L33.4335 9.9029C33.138 8.10407 32.3344 6.49082 31.0389 5.06958C29.7364 3.64078 27.9476 2.53239 25.7008 1.72784C23.4582 0.903365 20.7172 0.5 17.493 0.5C14.9799 0.5 12.6773 0.826468 10.5898 1.48577L10.5884 1.48621C8.52336 2.14492 6.73236 3.09312 5.22363 4.33601C3.71514 5.57868 2.54382 7.06186 1.71479 8.78302L1.7134 8.78595C0.90114 10.5006 0.5 12.4147 0.5 14.5187V19.0962C0.5 21.2454 0.921957 23.2166 1.77377 25.0015L1.77656 25.0072C2.64578 26.7704 3.86671 28.295 5.43376 29.5792L5.43594 29.5809C7.00369 30.8511 8.85353 31.8201 10.9779 32.4928L10.9792 32.4932C13.1256 33.1663 15.4774 33.5 18.0308 33.5C20.962 33.5 23.4791 33.2774 25.5757 32.8257L25.579 32.8249C27.6512 32.3641 29.3367 31.8188 30.6214 31.1811C31.8844 30.5639 32.8155 29.9849 33.3561 29.4366L33.5 29.2906V29.0855V18.1765Z" fill="#00AC58" stroke="#00AC58"/>
<path d="M38.841 16.5549V29.0636H36.1988V16.5549H38.841ZM36 13.237C36 12.8902 36.1278 12.5973 36.3835 12.3584C36.6487 12.1195 37.0369 12 37.5483 12C38.0503 12 38.4337 12.1195 38.6989 12.3584C38.9736 12.5973 39.1108 12.8902 39.1108 13.237C39.1108 13.5684 38.9736 13.8536 38.6989 14.0925C38.4337 14.3237 38.0503 14.4393 37.5483 14.4393C37.0369 14.4393 36.6487 14.3237 36.3835 14.0925C36.1278 13.8536 36 13.5684 36 13.237ZM45.6878 19.2254V29.0636H43.0599V16.5549H45.5458L45.6878 19.2254ZM45.0628 22.3352L43.969 22.3006C43.9785 21.4451 44.1348 20.6551 44.4378 19.9306C44.7408 19.1985 45.167 18.5626 45.7162 18.0231C46.2655 17.4836 46.919 17.0675 47.6765 16.7745C48.4436 16.474 49.2911 16.3237 50.2193 16.3237C50.9768 16.3237 51.6587 16.4084 52.2648 16.578C52.8708 16.7399 53.387 17.0019 53.8131 17.3642C54.2488 17.7264 54.5802 18.1965 54.8074 18.7746C55.0347 19.3449 55.1484 20.0424 55.1484 20.8671V29.0636H52.5063V20.8439C52.5063 20.1888 52.3879 19.6648 52.1512 19.2717C51.9144 18.8709 51.5688 18.5819 51.1142 18.4047C50.6596 18.2197 50.1009 18.1272 49.438 18.1272C48.7845 18.1272 48.1879 18.2389 47.6481 18.4624C47.1178 18.686 46.6585 18.9942 46.2702 19.3873C45.8915 19.7803 45.5931 20.2312 45.3753 20.7399C45.167 21.2409 45.0628 21.7726 45.0628 22.3352ZM69.0978 16.5549H71.4842V28.7977C71.4842 29.8998 71.2096 30.84 70.6604 31.6185C70.1111 32.3969 69.344 32.9865 68.3591 33.3873C67.3837 33.7957 66.2568 34 64.9784 34C64.448 34 63.8229 33.9306 63.1032 33.7919C62.393 33.6608 61.6922 33.4335 61.0009 33.1098C60.3191 32.7938 59.7461 32.366 59.2821 31.8266L60.66 30.5549C61.3039 31.1869 61.9763 31.6262 62.6771 31.8728C63.3874 32.1194 64.0881 32.2428 64.7794 32.2428C65.6128 32.2428 66.3325 32.1156 66.9386 31.8612C67.5447 31.6069 68.0135 31.2293 68.3449 30.7283C68.6859 30.235 68.8563 29.6262 68.8563 28.9017V19.3064L69.0978 16.5549ZM58.515 22.948V22.7052C58.515 21.7495 58.6523 20.8825 58.927 20.104C59.2111 19.3179 59.6135 18.6436 60.1344 18.0809C60.6647 17.5183 61.3039 17.0867 62.0521 16.7861C62.8002 16.4779 63.643 16.3237 64.5805 16.3237C65.5466 16.3237 66.3893 16.4625 67.1091 16.7399C67.8383 17.0096 68.4539 17.4066 68.9558 17.9306C69.4671 18.447 69.8696 19.0713 70.1632 19.8035C70.4567 20.5357 70.6604 21.3642 70.774 22.289V23.3526C70.6698 24.2697 70.4662 25.0944 70.1632 25.8266C69.8696 26.5588 69.4671 27.183 68.9558 27.6994C68.4539 28.2158 67.8383 28.6127 67.1091 28.8901C66.3799 29.1599 65.5276 29.2948 64.5522 29.2948C63.6336 29.2948 62.8002 29.1368 62.0521 28.8208C61.3134 28.5048 60.6789 28.0616 60.1485 27.4913C59.6182 26.921 59.2111 26.2505 58.927 25.4797C58.6523 24.7014 58.515 23.8574 58.515 22.948ZM61.1429 22.7052V22.948C61.1429 23.5722 61.2187 24.158 61.3702 24.7052C61.5312 25.2524 61.7727 25.7341 62.0947 26.1503C62.4262 26.5665 62.8476 26.894 63.3589 27.1329C63.8703 27.3641 64.4812 27.4798 65.1914 27.4798C66.0627 27.4798 66.7823 27.3294 67.3505 27.0289C67.9187 26.7283 68.3686 26.3314 68.7 25.8381C69.041 25.3449 69.3062 24.8092 69.4955 24.2312V21.4451C69.3913 21.0212 69.2303 20.6127 69.0125 20.2197C68.8042 19.8189 68.5296 19.4643 68.1887 19.1561C67.8572 18.8401 67.4453 18.5896 66.9528 18.4047C66.4604 18.2197 65.8827 18.1272 65.2198 18.1272C64.5001 18.1272 63.8798 18.2505 63.3589 18.4971C62.8476 18.736 62.4262 19.0674 62.0947 19.4913C61.7727 19.9075 61.5312 20.393 61.3702 20.9479C61.2187 21.4952 61.1429 22.0809 61.1429 22.7052ZM81.6266 27.5376C82.2517 27.5376 82.8294 27.4335 83.3597 27.2254C83.89 27.0173 84.3256 26.7322 84.6666 26.3699C85.0075 26 85.2016 25.58 85.2489 25.1098H87.749C87.7017 25.8497 87.3939 26.5395 86.8257 27.1792C86.267 27.8112 85.533 28.3237 84.6239 28.7167C83.7148 29.1021 82.7157 29.2948 81.6266 29.2948C80.4713 29.2948 79.4627 29.129 78.601 28.7977C77.7487 28.4663 77.0384 28.0115 76.4702 27.4335C75.9115 26.8555 75.49 26.1927 75.206 25.4451C74.9314 24.6897 74.794 23.8921 74.794 23.052V22.5665C74.794 21.7264 74.9314 20.9325 75.206 20.185C75.49 19.4297 75.9115 18.763 76.4702 18.185C77.0384 17.6069 77.7487 17.1522 78.601 16.8208C79.4627 16.4894 80.4713 16.3237 81.6266 16.3237C82.8294 16.3237 83.8805 16.5241 84.7802 16.9249C85.6799 17.3179 86.3853 17.8574 86.8967 18.5433C87.4176 19.2216 87.7017 19.9923 87.749 20.8554H85.2489C85.2016 20.3391 85.0217 19.8728 84.7092 19.4566C84.4061 19.0404 83.9894 18.709 83.4591 18.4624C82.9383 18.2081 82.3275 18.0809 81.6266 18.0809C80.8217 18.0809 80.1446 18.2119 79.5954 18.474C79.0555 18.7283 78.6247 19.0751 78.3027 19.5145C77.9901 19.9461 77.7628 20.4277 77.6208 20.9595C77.4883 21.4836 77.4219 22.0193 77.4219 22.5665V23.052C77.4219 23.5992 77.4883 24.1388 77.6208 24.6705C77.7534 25.2023 77.9759 25.684 78.2885 26.1156C78.6104 26.5472 79.0413 26.894 79.5811 27.1561C80.1304 27.4104 80.8122 27.5376 81.6266 27.5376ZM90.0077 22.948V22.6821C90.0077 21.7803 90.1687 20.9441 90.4906 20.1734C90.8126 19.395 91.2766 18.7206 91.8827 18.1503C92.4888 17.5723 93.2228 17.1252 94.0842 16.8092C94.946 16.4855 95.9124 16.3237 96.9825 16.3237C98.0616 16.3237 99.0325 16.4855 99.8944 16.8092C100.765 17.1252 101.504 17.5723 102.111 18.1503C102.726 18.7206 103.195 19.395 103.516 20.1734C103.838 20.9441 104 21.7803 104 22.6821V22.948C104 23.8497 103.838 24.6859 103.516 25.4566C103.195 26.2274 102.726 26.9017 102.111 27.4798C101.504 28.0501 100.771 28.4971 99.9089 28.8208C99.0562 29.1368 98.0907 29.2948 97.0107 29.2948C95.9315 29.2948 94.9606 29.1368 94.0987 28.8208C93.237 28.4971 92.4983 28.0501 91.8827 27.4798C91.2766 26.9017 90.8126 26.2274 90.4906 25.4566C90.1687 24.6859 90.0077 23.8497 90.0077 22.948ZM92.6356 22.6821V22.948C92.6356 23.5722 92.7256 24.1618 92.9055 24.7168C93.0854 25.264 93.3553 25.7495 93.7152 26.1734C94.0842 26.5973 94.5442 26.9326 95.0933 27.1792C95.6424 27.4181 96.2815 27.5376 97.0107 27.5376C97.7307 27.5376 98.3598 27.4181 98.8998 27.1792C99.4489 26.9326 99.9035 26.5973 100.263 26.1734C100.624 25.7495 100.894 25.264 101.074 24.7168C101.263 24.1618 101.357 23.5722 101.357 22.948V22.6821C101.357 22.0655 101.263 21.4836 101.074 20.9364C100.894 20.3815 100.619 19.8921 100.25 19.4682C99.8898 19.0366 99.4353 18.6975 98.8862 18.4508C98.3461 18.2042 97.7116 18.0809 96.9825 18.0809C96.2624 18.0809 95.6279 18.2042 95.0788 18.4508C94.5387 18.6975 94.0842 19.0366 93.7152 19.4682C93.3553 19.8921 93.0854 20.3815 92.9055 20.9364C92.7256 21.4836 92.6356 22.0655 92.6356 22.6821Z" fill="black"/>
</svg>
